<?xml version="1.0" encoding="utf-8"?>
<!-- Generator: Adobe Illustrator 22.0.1, SVG Export Plug-In . SVG Version: 6.00 Build 0)  -->
<svg version="1.0" id="ÉåÉCÉÑÅ_x5B__x5F_1" xmlns="http://www.w3.org/2000/svg" xmlns:xlink="http://www.w3.org/1999/xlink"
	 x="0px" y="0px" viewBox="0 0 200.9 277.3" enable-background="new 0 0 200.9 277.3" xml:space="preserve">
<g>
	<path fill="#85C61B" d="M0.6,13.9c-1.3,2.5-0.3,5.5,2.1,6.7C5.2,22,8.2,21,9.4,18.5c2.8-5.4,4.7-6.8,8.7-6.6
		c3.7,0.2,7.5,2.6,7.9,6.8c0.2,2.9-1.6,5.1-4.6,8.5c-4.1,4.6-10.3,11.6-4.9,22.7c1.2,2.5,4.2,3.5,6.7,2.3c2.5-1.2,3.5-4.2,2.3-6.7
		c-2.4-4.8-0.8-6.9,3.4-11.6c3.4-3.8,7.7-8.6,7.1-15.9C35.3,9.1,28,2.4,18.6,1.9C7.1,1.4,2.7,9.9,0.6,13.9z"/>
</g>
<path fill="#85C61B" d="M33.7,62.7c0,3.4-2.8,6.2-6.2,6.2c-3.4,0-6.2-2.8-6.2-6.2c0-3.4,2.8-6.2,6.2-6.2
	C30.9,56.6,33.7,59.3,33.7,62.7z"/>
<polygon fill="#FFFFFF" points="134.5,181.8 87.2,181.8 87.2,273 134.5,274.4 "/>
<path fill="#FDC79F" d="M174,112.1c9-8.3,21.2,6.5,11.6,17.2c-7.7,8.5-15.4,11.2-25.5,8.9L174,112.1z"/>
<path fill="#FDC79F" d="M92.7,158.4c-1,8.5-4,15.6-4.6,23.9c7.3,1,44.3,2.3,39,1c-3.8-0.9,0,2.7-1.3-19.9c-0.2-2.7,0-5.5,0-8.2
	c-10.2-1.6-20.7,1.1-30.7,0.3L92.7,158.4z"/>
<path fill="#FDC79F" d="M63.3,86.6c0.3-3.8-7.1-5.5-10-5.7c-4-0.3-6.3,1.4-7.7,5.3c-4.1,11.6,6.8,24.6,17.6,26.4L63.3,86.6z"/>
<path fill="#FDC79F" d="M64.4,56.5c-1.4,4.6-4.6,23.1-5.5,27.7c-2.3,11.5-0.8,34.9,3.9,48.5c6.3,18,29.3,25.7,35.2,27.7
	c14.7,4.9,33.1,7.2,50.2-4.6c14.1-9.7,19.8-14.9,26.7-40.3c2.9-10.5,6-21.1,7.7-31.8c1.4-8.8-5.8-18.8-11.8-25.2
	c-8.3-8.9-16.1-17.1-27.6-22.2c-18-8-34.5-4.2-52.7-1.2c-9.1,1.5-21.8,4.5-24.1,14.6L64.4,56.5z"/>
<path fill="#432E14" d="M168.7,22.8C157.6,9.4,133-4.4,101.3,1.4c-40.2,4.6-52.9,48-54,50.3c0.3-0.6,10.8-3,16.5-5.6
	c-9.5,9.4-12.6,14.7-12.5,17.6c6.5-2.8,56.8-20.8,74.1-12.9c-4.5,4.4-21.8,5.8-35.6,10.2c0,0,26.9,5.1,65.4-6.7
	c7.4,16.2,14.7,25.5,24.9,34.1c0,0-4.5,24.9-5.2,27.9c-0.3,1.3,1.4,0.7,3.1-0.2c11-6.1,18.1-30.7,19.7-35.7
	C200.6,71.3,210.9,26.8,168.7,22.8z"/>
<path fill="#FCB398" d="M152.8,124.7c-2.2-0.4-11.9,0-12.9,3.5c-0.6,1.9-0.4,3.3-0.5,4.9c-0.1,1.1,1.5,0.9,1.2,2.1
	c2.2,1.3,1.4,3.6,5,4.1c2.1,0.3,5.8-0.1,7.7-1.5c3.2-2.3,6.4-11.6,0.4-13.1L152.8,124.7z"/>
<path fill="#FCB398" d="M70,109.4c2.1,0.1,10.6,2.8,10.4,6.4c-0.1,2-0.7,3.3-1.1,4.8c-0.3,1-1.6,0.5-1.8,1.7
	c-2.4,0.7-2.4,3.2-5.8,2.8c-2-0.2-5.1-1.4-6.4-3.2c-2.1-3-2-12.7,3.9-12.6L70,109.4z"/>
<path fill="#818CC1" d="M100.6,184.8c0.3,4.1,4.1,8.7,4.4,12.9c1.6,0.3,6.2,0.3,7.8-0.5c1.3-0.7,2.9-4,3.5-5.3
	c1-1.9,1.7-3.9,2.6-5.8c0.3-0.6,1.1-1.8,0.7-2.6c-0.9-1.5-6.1-1.9-7.3-1.9c-2.6,0-8.5,0-10.7,1.5L100.6,184.8z"/>
<path fill="#818CC1" d="M105,200.3c2.7-0.1,5.2-1.2,7.7-0.4c0.2,13.8,3.2,51.1,4.3,74.7l-15.6-0.3c-0.4-23.2,2.8-60.8,3.4-73.8
	L105,200.3z"/>
<path fill="#FFFFFF" d="M89.5,170.2c6.8,1.4,8.8,5.5,15,8.4c3.3,1.6,4.5,3.6,8,2.1c4.1-1.7,7.7-3.2,10.7-6.2
	c0.9-0.9,1.7-2.7,2.8-3.3c0.8-0.5,8.9,5.7,9.5,7c1.1,2.5-10.1,11.5-12.1,13.5c-2.7,2.5-12-9.3-13.2-9.7c-2.9-1-8,5.1-10.5,6.9
	c-3.4,2.4-0.6,1.1-3.8,2.9c-2.8-4.6-12.1-14.2-11.2-17.7L89.5,170.2z"/>
<polygon fill="#6895A0" points="56.9,207.3 60.2,178.5 64.3,176.3 89.5,170.2 89.8,185.7 92.9,277.3 52.3,275.3 54.9,241.3 "/>
<polygon fill="#6895A0" points="158.3,227.9 166.5,274.6 126.9,275.9 126.2,185.9 126,171.2 155.6,179.9 "/>
<path fill="#61421E" d="M183.1,36.1c7,0,9.3,15.5,9.7,23.4c-1.6-2-3-4.4-4.6-6.4c-1.1,5.4-0.7,11.3-1.6,16.8
	c-0.6-4.8-1.4-9.8-2.5-14.3c-0.8-3.5-1.9-6.8-3.4-9.7c-1.1-2.1-3.2-3.8-3.8-6.3c3.7,0.3,6.5,5.9,9.5,8.4c-0.1-2.5-3.2-10.8-4.9-12.4
	L183.1,36.1z"/>
<path fill="#442220" d="M92.1,93.8c-0.8,4.5-4.1,7.7-7.2,7.1c-2.7-0.5-4.5-3.8-4.3-7.6c0-0.5,0.4-2.7,0.6-3.2c1.2-3.6,4-6,6.8-5.5
	C91.1,85.2,93,89.3,92.1,93.8z"/>
<path fill="#FFFFFF" d="M89.5,88.7c-0.2,1.2-1.3,2.1-2.4,1.9c-1.1-0.2-1.8-1.4-1.5-2.6c0.2-1.2,1.3-2.1,2.4-1.9
	C89,86.3,89.7,87.5,89.5,88.7z"/>
<path fill="#442220" d="M153.5,105.8c-0.8,4.5-4.1,7.7-7.2,7.1c-2.7-0.5-4.5-3.8-4.3-7.6c0-0.5,0.4-2.7,0.6-3.2c1.2-3.6,4-6,6.8-5.5
	C152.5,97.2,154.4,101.3,153.5,105.8z"/>
<path fill="#FFFFFF" d="M150.9,100.7c-0.2,1.2-1.3,2.1-2.4,1.9c-1.1-0.2-1.8-1.4-1.5-2.6c0.2-1.2,1.3-2.1,2.4-1.9
	C150.4,98.3,151.1,99.4,150.9,100.7z"/>
<path fill="none" stroke="#442220" stroke-width="2.0564" stroke-linecap="round" stroke-linejoin="round" d="M78.4,69.7
	c5.1,1.7,16.6,2.2,20.1,2.6"/>
<path fill="none" stroke="#442220" stroke-width="2.0564" stroke-linecap="round" stroke-linejoin="round" d="M144.1,78.9
	c5,3.4,18,6.4,20.4,6.2"/>
<path fill="none" stroke="#442220" stroke-width="2.0564" stroke-linecap="round" stroke-linejoin="round" d="M109.9,108.6
	c-2.6,3.4-4.1,8.4,0.9,9.9"/>
<path fill="#432E14" d="M70.9,55c-4.1,5.5-6.3,12.5-8.5,18.8c-1.1,3-1.8,7.3-3.1,9.7c0-6.8-0.6-17.3,0-24c0.5-5.4,2.8-2.9,7.6-4.4
	L70.9,55z"/>
<path fill="#7A5325" d="M72.4,24.6c4.4-9.2,16.9-15,25.8-17.2c4.3-1.1,13-2.2,17.4-1.1c2.8,0.7,3.1,2.2,5.9,2.4
	c-11.4,0-22.6,1.6-33.4,5.4c-4.5,1.6-12.4,5.5-15.2,9.2L72.4,24.6z"/>
<path fill="#F9727D" d="M106.5,128.7c-5.3,2.7-7.1,14.7,10.4,11.2C121.6,139,113.3,125.2,106.5,128.7z"/>
<path fill="#FDC79F" d="M78.3,250.2c4.9-0.7,6.3-7,11.4-6.9c2,0,4.3-0.4,6,0.3c0.8,0.3,2.9,0.3,3.8,0.7c0.7,0.3,11.8,5,12.7,5.4
	c3,1.2,19.1-0.5,20.9-3.1c0.9-1.3,3.7-11.7,2.3-13c-1-1-12.1,1.2-13.5,0.8c-5.2-1.4-18-8.4-23.5-8.9c-6.2-0.6-11.4,2.5-16.6,5.3
	c-2.6,1.4-5.7,3.4-6.7,6c-0.5,1.4-0.2,4.1-1.3,5c-0.4,0.3-2.4,2.8-2.9,3c0,3.8-0.8-1-0.1,3L78.3,250.2z"/>
<path fill="#6895A0" d="M67,184.4c-10.7-1.4,1.1-7.2-6.7-4.8c-16.3,5-17.6,57.7-14.3,73.3c1.9,9.2,6.3,9,15.3,11
	c18.8,4.2,0.8,4.3,19.7,1.2c2.5-0.4,29.9-4,31.5-5.8c1.9-2.1,26.7-8.4,27-11.2c0.5-5.8-5.6-17.5-6-23.2c-21.8,8.5-48,11.8-60.8,16.1
	c-2.6-9-2.9-29.5-5.1-38.6c-1.1-4.7,0.5-9.5,1.1-14.4L67,184.4z"/>
<path fill="#FDC79F" d="M75.3,236.1c-0.8,1.2-7.4,11.3-2.2,10.8c0.9-0.1,2.6-2.3,3.4-3c1.3-1,2.1-1.4,3.6-1.8c-1.1,2-0.4,4.6,2,5.2
	c2.6,0.7,3.5-1.8,4.4-4.2c0.5-1.3,2.9-4.8,2.4-6c-0.7-1.6-5.7-2.5-7.2-2.6L75.3,236.1z"/>
<path fill="#6895A0" d="M120,229.9c-1.6,5.8,0.7,15.5-4,19.7c11.2,6.1,35.4,12.7,48.5,14c7,0.7,12.9-8.2,16.5-14
	c3.7-5.9,1.1-11,0.5-17.5c-1-10.2-3.7-12.9-6-22.8c-1.4-6.4-0.4-14.1-2.9-19.5c-3.4-7.4-20.2-16-24.3-5.8c-2.8,6.7,0,19.9,0,27.2
	c0,6.9,0.2,13.9-0.1,20.7c-5.6-1.7-11.3,0-17.2-0.9L120,229.9z"/>
<path fill="#FDC79F" d="M127.3,231.1c5.2-1.8,7.7-3.8,11.5-4.8c4.2-1.8,14.9-8.9,16.9-6.1c3,3.7,16-0.5,11.3,4.9
	c-5.5,6.4-0.9,7.6-3,11.1c-1.8,3,1.6,3.7-2,5.9c-5.4,3.3-16.3,4.5-21.4,2.6c-7.5-2.8-9.2-0.5-16.6-3.2c-0.1-4.4-1.8-2.2-2-6.5
	L127.3,231.1z"/>
<path fill="#6895A0" d="M112.7,227.3c0.3,4.8-4,13.4-5,18c-0.2,1,9.3,1.5,8.1,2c7.1,0.1,14.6,1.6,21.7,2.3c6,0.6,11.8,1.1,17.8,1.3
	c4,0.1,11.9,2.8,15,0c1.7-1.6,2.1-5.7,3-7.8c1.3-3.1,2.4-5.4,2.2-8.7c-4-1.3-8.3-1.5-12.5-1.5c-7.2,0-11.8-1.2-18.9-1.8
	c-5.7-0.5-12.3-0.4-18-1.5c-1-0.2-5.1-0.1-5.8-0.8L112.7,227.3z"/>
</svg>
